<svg xmlns="http://www.w3.org/2000/svg" width="26.634" height="26.731" viewBox="0 0 26.634 26.731"><g transform="translate(-1.02 -2.019)"><path d="M7.5,18A1.5,1.5,0,1,1,6,19.5,1.5,1.5,0,0,1,7.5,18Z" transform="translate(1.5 7)" fill="none" stroke="#fff" stroke-width="1.5"/><path d="M16.5,18A1.5,1.5,0,1,1,15,19.5,1.5,1.5,0,0,1,16.5,18Z" transform="translate(4.875 7)" fill="none" stroke="#fff" stroke-width="1.5"/><path d="M13,13V11m0,0V9m0,2h2m-2,0H11" transform="translate(3.6 3)" fill="none" stroke="#fff" stroke-linecap="round" stroke-width="1.5"/><path d="M2,3l.344.143C4.056,3.857,4.913,4.214,5.4,5.064s.49,1.979.49,4.236v4.246c0,4.589.083,6.1,1.223,7.529S10.09,22.5,13.76,22.5h1.4m5.579,0c2.054,0,3.081,0,3.807-.7s.933-1.894,1.348-4.279l.658-3.783c.457-2.713.685-4.069.1-4.97s-2.58-.9-4.8-.9H13.873m-7.981,0H8.579" transform="translate(0 0)" fill="none" stroke="#fff" stroke-linecap="round" stroke-width="1.5"/></g></svg>