<svg xmlns="http://www.w3.org/2000/svg" width="18.036" height="18.001" viewBox="0 0 18.036 18.001"><g transform="translate(-3.012 -2.999)"><path d="M10.5,15.25A.74.74,0,0,1,10,15L7,12a.75.75,0,0,1,1-1l2.47,2.47L19,5a.75.75,0,0,1,1,1l-9,9A.74.74,0,0,1,10.5,15.25Z"/><path d="M12,21a9,9,0,0,1-7.87-4.66,8.669,8.669,0,0,1-1.07-3.41,9,9,0,0,1,4.6-8.81,8.67,8.67,0,0,1,3.41-1.07,8.86,8.86,0,0,1,3.55.34.75.75,0,1,1-.43,1.43,7.62,7.62,0,0,0-3-.28A7.5,7.5,0,0,0,7.24,17.82a7.5,7.5,0,0,0,8.35.75,7.5,7.5,0,0,0,2.2-1.84,7.42,7.42,0,0,0,1.64-5.51A.789.789,0,0,1,21,11.07a9,9,0,0,1-4.61,8.81A8.669,8.669,0,0,1,12.93,21Z"/></g></svg>