<svg xmlns="http://www.w3.org/2000/svg" width="11.745" height="15" viewBox="0 0 11.745 15"><g transform="translate(-71.543 -20.431)"><g transform="translate(71.543 20.431)"><path d="M71.676,30.971a.814.814,0,0,0-.133.446v3.589a.445.445,0,0,0,.462.425h4.5a.445.445,0,0,0,.462-.425V31.437a.815.815,0,0,0-.115-.417l-.1-.166a.209.209,0,0,1,.006-.231l.075-.114a.814.814,0,0,0,.133-.446v-2.49a.811.811,0,0,0-.115-.416l-.1-.167a.208.208,0,0,1,.006-.231l.075-.114a.814.814,0,0,0,.133-.446v-.325a5.035,5.035,0,0,0-.033-.52,2.663,2.663,0,0,0-.772-1.594l-.221-.219a2.117,2.117,0,0,1-.636-1.4.369.369,0,0,0,.259-.352V20.8a.369.369,0,0,0-.368-.368h-1.79a.369.369,0,0,0-.368.368v.993a.369.369,0,0,0,.163.306s0,.006,0,.009v0a2.117,2.117,0,0,1-.632,1.432l-.233.233a2.663,2.663,0,0,0-.763,1.586,5.067,5.067,0,0,0-.033.522v.328a.816.816,0,0,0,.133.447l.068.1a.22.22,0,0,1,0,.24l-.069.1a.814.814,0,0,0-.133.446v2.522a.813.813,0,0,0,.133.446l.068.1a.22.22,0,0,1,0,.24Zm.335-.519-.068-.1a.5.5,0,0,1-.081-.272V27.552a.5.5,0,0,1,.081-.272l.068-.1a.538.538,0,0,0,0-.589l-.068-.1a.5.5,0,0,1-.081-.273v-.328a4.741,4.741,0,0,1,.031-.487,2.3,2.3,0,0,1,.065-.343c.235.065.382.276.546.515a1.029,1.029,0,0,0,1.932,0c.2-.288.37-.536.7-.536s.505.248.7.536a1.286,1.286,0,0,0,.809.661.5.5,0,0,1-.08.242l-.075.114a.526.526,0,0,0-.013.568l.1.167a.494.494,0,0,1,.07.253v2.49a.5.5,0,0,1-.081.272l-.075.114a.526.526,0,0,0-.013.568l.1.167a.5.5,0,0,1,.07.254V34.4H71.861V31.417a.5.5,0,0,1,.081-.272l.068-.1A.538.538,0,0,0,72.011,30.451Zm4.5,4.661h-4.5c-.078,0-.144-.049-.144-.107v-.283h4.791v.283C76.653,35.064,76.587,35.113,76.509,35.113ZM73.359,20.8a.05.05,0,0,1,.05-.05H75.2a.05.05,0,0,1,.05.05v.993a.05.05,0,0,1-.05.05h-1.79a.05.05,0,0,1-.05-.05ZM72.564,24l.233-.233a2.439,2.439,0,0,0,.721-1.575l1.474,0a2.436,2.436,0,0,0,.729,1.578l.221.219a2.343,2.343,0,0,1,.679,1.4,4.786,4.786,0,0,1,.031.485V25.9c-.236-.065-.383-.276-.548-.515a1.029,1.029,0,0,0-1.932,0c-.2.288-.37.536-.7.536s-.505-.248-.7-.536a1.4,1.4,0,0,0-.7-.637A2.348,2.348,0,0,1,72.564,24Z" transform="translate(-71.543 -20.431)" fill="#fff"/><rect width="3.663" height="0.318" transform="translate(0.93 6.28)" fill="#fff"/><rect width="3.663" height="0.318" transform="translate(0.93 10.15)" fill="#fff"/><path d="M258.312,136.226h4.4l.71-8.089h-2.752v-1.113l1.631-2.276-.259-.185-1.691,2.359v1.215H257.6Zm.292-.318-.032-.369h3.883l-.032.369Zm3.878-.687h-3.939l-.442-5.035c.269.045.425.27.6.527a1.029,1.029,0,0,0,1.932,0c.2-.288.37-.536.7-.536s.505.249.7.536a1.316,1.316,0,0,0,.777.655Zm.594-6.765-.227,2.591c-.234-.066-.379-.277-.543-.514a1.176,1.176,0,0,0-.966-.674.9.9,0,0,0-.668.292v-1.695h2.4Zm-2.723,2.106c-.19.275-.361.507-.684.507s-.505-.248-.7-.536a1.219,1.219,0,0,0-.893-.671l-.123-1.406h2.4v2.106Z" transform="translate(-251.678 -121.247)" fill="#fff"/><path d="M101.671,250.535a.753.753,0,0,0,.569-.268.427.427,0,0,1,.694,0,.738.738,0,0,0,1.138,0,.45.45,0,0,1,.347-.178v-.318a.753.753,0,0,0-.569.268.427.427,0,0,1-.694,0,.738.738,0,0,0-1.138,0,.427.427,0,0,1-.694,0,.753.753,0,0,0-.569-.268v.318a.45.45,0,0,1,.347.178A.752.752,0,0,0,101.671,250.535Z" transform="translate(-99.825 -242.469)" fill="#fff"/><path d="M101.671,291.764a.753.753,0,0,0,.569-.268.427.427,0,0,1,.694,0,.738.738,0,0,0,1.138,0,.45.45,0,0,1,.347-.178V291a.753.753,0,0,0-.569.268.427.427,0,0,1-.694,0,.738.738,0,0,0-1.138,0,.427.427,0,0,1-.694,0,.752.752,0,0,0-.569-.268v.318a.45.45,0,0,1,.347.178A.753.753,0,0,0,101.671,291.764Z" transform="translate(-99.825 -282.386)" fill="#fff"/></g></g></svg>