<svg xmlns="http://www.w3.org/2000/svg" width="15" height="15" viewBox="0 0 15 15"><path d="M115.6.917h-1.661c-1.32,0-2.419.593-2.5,1.35l-.209,1.9a2.4,2.4,0,0,0-.8-.274.734.734,0,0,0,.206-.49c0-.447-.477-.831-1.153-.993a.669.669,0,0,0,.18-.439V1.857c0-1.024-1.449-1.857-3.23-1.857H105.8c-.3,0-.549.141-.549.315s.246.315.549.315h.32c.256,0,.464.12.464.266s-.208.266-.464.266h-1.311c-.861,0-1.561.4-1.561.9a.591.591,0,0,0,.134.363c-.652.168-1.107.545-1.107.981a.734.734,0,0,0,.206.49c-.773.132-1.338.544-1.338,1.031a.768.768,0,0,0,.263.549l-.027.018a.219.219,0,0,0-.1.272l2.63,5.829a2.653,2.653,0,0,0,1.812,1.239l-3.323,1.61c-.176.085-.241.225-.162.349a.622.622,0,0,0,.515.207H111c.3,0,.549-.141.549-.315,0-.1-.085-.194-.217-.251l-3.17-1.536a2.831,2.831,0,0,0,2.087-1.3l2.63-5.829a.219.219,0,0,0-.1-.272.749.749,0,0,0-.434-.122h-.158l.337-3.064c.047-.426.665-.759,1.407-.759H115.6c.3,0,.549-.141.549-.315S115.9.917,115.6.917Zm-10.786.877h1.311c.861,0,1.561-.4,1.561-.9,0-.011,0-.022,0-.033.534.223.882.585.882.993v.116c0,.2-.278.356-.62.357l-3.134,0c-.256,0-.464-.12-.464-.266S104.558,1.794,104.814,1.794Zm-.662,1.166h4.615c.427,0,.774.2.774.445s-.347.445-.774.445h-4.615c-.427,0-.774-.2-.774-.445S103.724,2.96,104.151,2.96Zm-1.132,1.521H109.9c.427,0,.774.2.774.445s-.347.445-.774.445h-6.878c-.427,0-.774-.2-.774-.445S102.593,4.481,103.019,4.481Zm1.242,9.889,2.62-1.27,2.62,1.27Zm4.93-2.934a2.836,2.836,0,0,1-4.212,0l-1.8-3.993h6.609c.3,0,.549-.141.549-.315s-.246-.315-.549-.315h-6.894L102.527,6h9.116Z" transform="translate(-101.148)" fill="#fcfcfc"/></svg>