<svg xmlns="http://www.w3.org/2000/svg" xmlns:xlink="http://www.w3.org/1999/xlink" width="15" height="15" viewBox="0 0 15 15"><defs><clipPath id="a"><rect width="15" height="15" fill="rgba(255,255,255,0)"/></clipPath></defs><g clip-path="url(#a)"><rect width="15" height="15" fill="rgba(255,255,255,0)"/><g transform="translate(1.568 1.688)"><path d="M5.9,3.627,2.541,13.71a.625.625,0,0,0,.791.791L13.416,11.14M5.9,3.627l.023-.07A1.25,1.25,0,0,1,8,3.068l5.979,5.979a1.25,1.25,0,0,1-.489,2.07l-.07.023M5.9,3.627l7.513,7.513" transform="translate(-2.508 -2.702)" fill="none" stroke="#fff" stroke-linecap="round" stroke-linejoin="round" stroke-width="1"/></g><g transform="translate(5 6.25)"><circle cx="0.938" cy="0.938" r="0.938" fill="none" stroke="#fff" stroke-linejoin="round" stroke-width="1"/></g><g transform="translate(7.5 8.75)"><circle cx="0.625" cy="0.625" r="0.625" fill="none" stroke="#fff" stroke-linejoin="round" stroke-width="1"/></g><g transform="translate(4.063 9.688)"><circle cx="0.625" cy="0.625" r="0.625" fill="none" stroke="#fff" stroke-linejoin="round" stroke-width="1"/></g></g></svg>