<svg xmlns="http://www.w3.org/2000/svg" width="260" height="260" viewBox="0 0 260 260"><g transform="translate(0 0.032)"><path d="M130,129.968m-130,0a130,130,0,1,0,130-130,130,130,0,0,0-130,130Z" transform="translate(0 0)" fill="#edd87e"/><path d="M130-.032a130,130,0,1,0,130,130,130,130,0,0,0-130-130Zm0,243.75a113.75,113.75,0,1,1,113.75-113.75A113.75,113.75,0,0,1,130,243.718Z" transform="translate(0 0)"/><path d="M272.09,208.1m-16.25,0a16.25,16.25,0,1,0,16.25-16.25,16.25,16.25,0,0,0-16.25,16.25Z" transform="translate(-190.84 -143.13)" fill="#ef4d4d"/><path d="M400.01,463.938m-16.25,0a16.25,16.25,0,1,0,16.25-16.25A16.25,16.25,0,0,0,383.76,463.938Z" transform="translate(-286.26 -333.97)" fill="#ef4d4d"/><path d="M176.15,591.858m-16.25,0a16.25,16.25,0,1,0,16.25-16.25A16.25,16.25,0,0,0,159.9,591.858Z" transform="translate(-119.275 -429.39)" fill="#ef4d4d"/><path d="M495.95,751.758m-16.25,0a16.25,16.25,0,1,0,16.25-16.25A16.25,16.25,0,0,0,479.7,751.758Z" transform="translate(-357.825 -548.665)" fill="#ef4d4d"/><path d="M751.79,559.878m-16.25,0a16.25,16.25,0,1,0,16.25-16.25A16.25,16.25,0,0,0,735.54,559.878Z" transform="translate(-548.665 -405.535)" fill="#ef4d4d"/><path d="M623.87,240.078m-16.25,0a16.25,16.25,0,1,0,16.25-16.25A16.25,16.25,0,0,0,607.62,240.078Z" transform="translate(-453.245 -166.985)" fill="#ef4d4d"/><path d="M241.67,236.555V252.8a4.062,4.062,0,1,0,8.125,0v-16.25a4.062,4.062,0,1,0-8.125,0Zm-60.938,69.062a4.062,4.062,0,0,0-4.062,4.062v16.25a4.063,4.063,0,0,0,8.125,0V309.68a4.062,4.062,0,0,0-4.062-4.062Zm138.523-58.061-11.489-11.489a4.062,4.062,0,1,0-5.745,5.745L313.511,253.3a4.062,4.062,0,1,0,5.745-5.745ZM210.332,203.405a4.062,4.062,0,1,0-5.745,5.745l11.489,11.488a4.062,4.062,0,1,0,5.745-5.745Zm57.029,97.313a4.062,4.062,0,1,0-5.745,5.745l11.489,11.488a4.062,4.062,0,1,0,5.745-5.745ZM148.232,224.367h-16.25a4.062,4.062,0,0,0,0,8.125h16.25a4.062,4.062,0,1,0,0-8.125ZM246,171.279a4.062,4.062,0,0,0-5.744,0l-11.489,11.489a4.062,4.062,0,1,0,5.745,5.745L246,177.023a4.054,4.054,0,0,0,0-5.744Zm2.3,105.714-11.489,11.489a4.062,4.062,0,1,0,5.745,5.745l11.488-11.489a4.062,4.062,0,1,0-5.745-5.745Zm-48.717,56.826-11.489,11.489a4.062,4.062,0,1,0,5.745,5.745l11.488-11.489a4.062,4.062,0,1,0-5.745-5.745Z" transform="translate(-95.42 -126.899)" fill="#3aad73"/><path d="M679.7,455.813m-8.125,0a8.125,8.125,0,1,0,8.125-8.125A8.125,8.125,0,0,0,671.58,455.813Z" transform="translate(-500.955 -333.97)" fill="#4f3923"/><path d="M711.685,807.593m-8.125,0a8.125,8.125,0,1,0,8.125-8.125,8.125,8.125,0,0,0-8.125,8.125Z" transform="translate(-524.81 -596.375)" fill="#4f3923"/><path d="M423.865,647.693m-8.125,0a8.125,8.125,0,1,0,8.125-8.125A8.125,8.125,0,0,0,415.74,647.693Z" transform="translate(-310.115 -477.1)" fill="#4f3923"/><path d="M168.025,487.793m-8.125,0a8.125,8.125,0,1,0,8.125-8.125A8.125,8.125,0,0,0,159.9,487.793Z" transform="translate(-119.275 -357.825)" fill="#4f3923"/><path d="M295.945,391.853m-8.125,0a8.125,8.125,0,1,0,8.125-8.125A8.125,8.125,0,0,0,287.82,391.853Z" transform="translate(-214.695 -286.26)" fill="#4f3923"/><path d="M423.865,136.013m-8.125,0a8.125,8.125,0,1,0,8.125-8.125A8.125,8.125,0,0,0,415.74,136.013Z" transform="translate(-310.115 -95.42)" fill="#4f3923"/><path d="M807.625,295.913m-8.125,0a8.125,8.125,0,1,0,8.125-8.125A8.125,8.125,0,0,0,799.5,295.913Z" transform="translate(-596.375 -214.695)" fill="#4f3923"/></g></svg>