<?xml version="1.0" standalone="no"?>
<!DOCTYPE svg PUBLIC "-//W3C//DTD SVG 20010904//EN"
 "http://www.w3.org/TR/2001/REC-SVG-20010904/DTD/svg10.dtd">
<svg version="1.0" xmlns="http://www.w3.org/2000/svg"
 width="700.000000pt" height="700.000000pt" viewBox="0 0 700.000000 700.000000"
 preserveAspectRatio="xMidYMid meet">
<metadata>
Created by potrace 1.14, written by Peter Selinger 2001-2017
</metadata>
<g transform="translate(0.000000,700.000000) scale(0.100000,-0.100000)"
fill="#000000" stroke="none">
<path d="M3269 6996 c-2 -2 -41 -6 -87 -10 -210 -15 -522 -78 -749 -151 -76
-24 -146 -49 -155 -55 -10 -5 -23 -10 -29 -10 -6 0 -25 -6 -42 -14 -18 -8 -66
-29 -107 -47 -677 -289 -1275 -829 -1649 -1486 -184 -324 -344 -769 -397
-1100 -3 -19 -8 -45 -10 -57 -26 -134 -38 -296 -38 -531 -1 -277 4 -370 29
-542 75 -510 267 -1011 548 -1428 109 -163 165 -236 292 -380 161 -184 398
-400 565 -515 19 -13 37 -27 40 -30 13 -14 99 -70 108 -70 6 0 12 -4 14 -8 6
-15 208 -131 353 -202 199 -97 481 -206 614 -235 9 -2 32 -9 51 -15 55 -16
319 -68 385 -76 33 -3 62 -8 65 -9 18 -11 240 -20 465 -19 355 1 592 33 920
125 123 35 355 116 370 130 5 5 15 9 22 9 8 0 79 31 159 70 949 456 1636 1297
1890 2312 78 313 99 501 99 873 -1 261 -8 353 -46 575 -191 1115 -919 2073
-1949 2563 -319 152 -705 267 -1035 307 -49 6 -103 13 -120 16 -36 7 -570 16
-576 10z"/>
</g>
</svg>
