<svg xmlns="http://www.w3.org/2000/svg" width="26" height="32" viewBox="0 0 26 32"><g transform="translate(-259 -203)"><path d="M282,211H262a1,1,0,0,1,0-2h20a1,1,0,0,1,0,2Zm-1,20a2,2,0,0,1-2,2H265a2,2,0,0,1-2-2V213h18v18Zm-12-25a1,1,0,0,1,1-1h4a1,1,0,0,1,1,1v1h-6v-1Zm14,1h-6v-2a2,2,0,0,0-2-2h-6a2,2,0,0,0-2,2v2h-6a2,2,0,0,0-2,2v2a2,2,0,0,0,2,2v18a4,4,0,0,0,4,4h14a4,4,0,0,0,4-4V213a2,2,0,0,0,2-2v-2a2,2,0,0,0-2-2Zm-11,24a1,1,0,0,0,1-1V218a1,1,0,0,0-2,0v12a1,1,0,0,0,1,1Zm-5,0a1,1,0,0,0,1-1V218a1,1,0,0,0-2,0v12a1,1,0,0,0,1,1Zm10,0a1,1,0,0,0,1-1V218a1,1,0,0,0-2,0v12a1,1,0,0,0,1,1Z" fill="#f80000" fill-rule="evenodd"/></g></svg>